<svg width="250" height="250" viewBox="0 0 250 250" fill="none" xmlns="http://www.w3.org/2000/svg">
<rect width="250" height="250" rx="11" fill="url(#paint0_linear_0_1)"/>
<g filter="url(#filter0_d_0_1)">
<path d="M19.8736 144V104.727H34.6009C37.6179 104.727 40.1491 105.29 42.1946 106.415C44.2528 107.54 45.8061 109.087 46.8544 111.055C47.9155 113.011 48.446 115.236 48.446 117.729C48.446 120.247 47.9155 122.484 46.8544 124.44C45.7933 126.396 44.2273 127.937 42.1562 129.062C40.0852 130.174 37.5348 130.73 34.505 130.73H24.7443V124.881H33.5462C35.3104 124.881 36.755 124.575 37.88 123.961C39.005 123.347 39.8359 122.504 40.3729 121.43C40.9226 120.356 41.1974 119.122 41.1974 117.729C41.1974 116.335 40.9226 115.108 40.3729 114.047C39.8359 112.986 38.9986 112.161 37.8608 111.573C36.7358 110.972 35.2848 110.672 33.5078 110.672H26.9879V144H19.8736ZM56.9405 104.727V144H49.9987V104.727H56.9405ZM68.2346 144.594C66.3682 144.594 64.6871 144.262 63.1913 143.597C61.7084 142.92 60.5322 141.923 59.6629 140.606C58.8064 139.289 58.3781 137.665 58.3781 135.735C58.3781 134.073 58.6849 132.699 59.2986 131.612C59.9122 130.526 60.7496 129.656 61.8106 129.004C62.8717 128.352 64.067 127.86 65.3966 127.528C66.7389 127.183 68.126 126.933 69.5578 126.78C71.2837 126.601 72.6835 126.441 73.7574 126.3C74.8312 126.147 75.6111 125.917 76.0969 125.61C76.5954 125.29 76.8447 124.798 76.8447 124.134V124.018C76.8447 122.574 76.4165 121.455 75.5599 120.663C74.7034 119.87 73.4697 119.474 71.8589 119.474C70.1587 119.474 68.8099 119.844 67.8128 120.586C66.8284 121.327 66.1636 122.203 65.8185 123.213L59.3369 122.293C59.8483 120.503 60.692 119.007 61.8682 117.805C63.0443 116.591 64.4825 115.683 66.1828 115.082C67.8831 114.469 69.7623 114.162 71.8206 114.162C73.2396 114.162 74.6523 114.328 76.0585 114.661C77.4648 114.993 78.7496 115.543 79.9129 116.31C81.0763 117.064 82.0095 118.093 82.7126 119.397C83.4285 120.701 83.7865 122.331 83.7865 124.287V144H77.1132V139.954H76.8831C76.4612 140.772 75.8667 141.539 75.0997 142.255C74.3454 142.958 73.393 143.527 72.2425 143.962C71.1047 144.384 69.7687 144.594 68.2346 144.594ZM70.0372 139.494C71.4307 139.494 72.6388 139.219 73.6615 138.669C74.6842 138.107 75.4704 137.365 76.0202 136.445C76.5827 135.524 76.8639 134.521 76.8639 133.434V129.963C76.6466 130.142 76.2758 130.308 75.7517 130.462C75.2403 130.615 74.665 130.749 74.0258 130.864C73.3866 130.979 72.7538 131.082 72.1274 131.171C71.501 131.261 70.9577 131.337 70.4974 131.401C69.4619 131.542 68.5351 131.772 67.7169 132.092C66.8987 132.411 66.2531 132.859 65.7801 133.434C65.3071 133.996 65.0706 134.725 65.0706 135.62C65.0706 136.898 65.5372 137.864 66.4704 138.516C67.4037 139.168 68.5926 139.494 70.0372 139.494ZM89.7065 155.045C88.7605 155.045 87.8848 154.969 87.0794 154.815C86.2868 154.675 85.654 154.509 85.181 154.317L86.7918 148.909C87.8017 149.203 88.703 149.344 89.4956 149.331C90.2882 149.318 90.985 149.069 91.5858 148.583C92.1994 148.11 92.7172 147.317 93.1391 146.205L93.7335 144.614L83.0524 114.545H90.4161L97.2044 136.79H97.5112L104.319 114.545H111.702L99.9083 147.567C99.3585 149.126 98.6298 150.462 97.7222 151.575C96.8145 152.7 95.7023 153.556 94.3855 154.144C93.0815 154.745 91.5219 155.045 89.7065 155.045ZM112.185 155.045V114.545H119.012V119.416H119.415C119.773 118.7 120.278 117.94 120.93 117.134C121.582 116.316 122.464 115.619 123.576 115.044C124.688 114.456 126.107 114.162 127.833 114.162C130.108 114.162 132.16 114.744 133.988 115.907C135.829 117.058 137.287 118.764 138.361 121.027C139.447 123.277 139.991 126.038 139.991 129.311C139.991 132.545 139.46 135.294 138.399 137.557C137.338 139.82 135.893 141.545 134.065 142.734C132.237 143.923 130.166 144.518 127.852 144.518C126.165 144.518 124.765 144.237 123.653 143.674C122.54 143.112 121.645 142.434 120.968 141.641C120.303 140.836 119.785 140.075 119.415 139.359H119.127V155.045H112.185ZM118.993 129.273C118.993 131.178 119.261 132.846 119.798 134.278C120.348 135.71 121.134 136.828 122.157 137.634C123.192 138.426 124.445 138.822 125.915 138.822C127.449 138.822 128.734 138.413 129.77 137.595C130.805 136.764 131.585 135.633 132.109 134.201C132.646 132.756 132.915 131.114 132.915 129.273C132.915 127.445 132.653 125.821 132.128 124.402C131.604 122.983 130.824 121.871 129.789 121.065C128.753 120.26 127.462 119.857 125.915 119.857C124.432 119.857 123.173 120.247 122.138 121.027C121.102 121.807 120.316 122.9 119.779 124.306C119.255 125.712 118.993 127.368 118.993 129.273ZM154.463 144.575C151.587 144.575 149.094 143.942 146.985 142.677C144.875 141.411 143.239 139.641 142.075 137.365C140.925 135.089 140.35 132.43 140.35 129.388C140.35 126.345 140.925 123.68 142.075 121.391C143.239 119.103 144.875 117.326 146.985 116.06C149.094 114.795 151.587 114.162 154.463 114.162C157.34 114.162 159.833 114.795 161.942 116.06C164.051 117.326 165.681 119.103 166.832 121.391C167.995 123.68 168.577 126.345 168.577 129.388C168.577 132.43 167.995 135.089 166.832 137.365C165.681 139.641 164.051 141.411 161.942 142.677C159.833 143.942 157.34 144.575 154.463 144.575ZM154.502 139.014C156.061 139.014 157.365 138.586 158.413 137.729C159.462 136.86 160.242 135.697 160.753 134.239C161.277 132.782 161.539 131.158 161.539 129.369C161.539 127.566 161.277 125.936 160.753 124.479C160.242 123.009 159.462 121.839 158.413 120.969C157.365 120.1 156.061 119.665 154.502 119.665C152.904 119.665 151.574 120.1 150.513 120.969C149.465 121.839 148.678 123.009 148.154 124.479C147.643 125.936 147.387 127.566 147.387 129.369C147.387 131.158 147.643 132.782 148.154 134.239C148.678 135.697 149.465 136.86 150.513 137.729C151.574 138.586 152.904 139.014 154.502 139.014ZM170.149 144V114.545H176.88V119.455H177.186C177.723 117.754 178.644 116.444 179.948 115.523C181.264 114.59 182.767 114.124 184.454 114.124C184.838 114.124 185.266 114.143 185.739 114.181C186.225 114.207 186.627 114.251 186.947 114.315V120.701C186.653 120.599 186.186 120.509 185.547 120.433C184.921 120.343 184.313 120.298 183.725 120.298C182.46 120.298 181.322 120.573 180.312 121.123C179.315 121.66 178.529 122.408 177.953 123.366C177.378 124.325 177.09 125.431 177.09 126.684V144H170.149ZM203.529 114.545V119.915H186.596V114.545H203.529ZM190.777 107.489H197.719V135.141C197.719 136.074 197.859 136.79 198.14 137.288C198.435 137.774 198.818 138.107 199.291 138.286C199.764 138.464 200.288 138.554 200.864 138.554C201.298 138.554 201.694 138.522 202.052 138.458C202.423 138.394 202.704 138.337 202.896 138.286L204.066 143.712C203.695 143.84 203.165 143.981 202.474 144.134C201.797 144.288 200.966 144.377 199.981 144.403C198.243 144.454 196.677 144.192 195.283 143.616C193.89 143.028 192.784 142.121 191.966 140.893C191.16 139.666 190.764 138.132 190.777 136.291V107.489ZM213.49 144.594C211.624 144.594 209.943 144.262 208.447 143.597C206.964 142.92 205.788 141.923 204.919 140.606C204.062 139.289 203.634 137.665 203.634 135.735C203.634 134.073 203.941 132.699 204.554 131.612C205.168 130.526 206.005 129.656 207.066 129.004C208.128 128.352 209.323 127.86 210.652 127.528C211.995 127.183 213.382 126.933 214.814 126.78C216.539 126.601 217.939 126.441 219.013 126.3C220.087 126.147 220.867 125.917 221.353 125.61C221.851 125.29 222.101 124.798 222.101 124.134V124.018C222.101 122.574 221.672 121.455 220.816 120.663C219.959 119.87 218.726 119.474 217.115 119.474C215.414 119.474 214.066 119.844 213.069 120.586C212.084 121.327 211.419 122.203 211.074 123.213L204.593 122.293C205.104 120.503 205.948 119.007 207.124 117.805C208.3 116.591 209.738 115.683 211.439 115.082C213.139 114.469 215.018 114.162 217.076 114.162C218.495 114.162 219.908 114.328 221.314 114.661C222.721 114.993 224.005 115.543 225.169 116.31C226.332 117.064 227.265 118.093 227.968 119.397C228.684 120.701 229.042 122.331 229.042 124.287V144H222.369V139.954H222.139C221.717 140.772 221.123 141.539 220.355 142.255C219.601 142.958 218.649 143.527 217.498 143.962C216.36 144.384 215.025 144.594 213.49 144.594ZM215.293 139.494C216.686 139.494 217.895 139.219 218.917 138.669C219.94 138.107 220.726 137.365 221.276 136.445C221.838 135.524 222.12 134.521 222.12 133.434V129.963C221.902 130.142 221.532 130.308 221.007 130.462C220.496 130.615 219.921 130.749 219.282 130.864C218.642 130.979 218.01 131.082 217.383 131.171C216.757 131.261 216.213 131.337 215.753 131.401C214.718 131.542 213.791 131.772 212.973 132.092C212.154 132.411 211.509 132.859 211.036 133.434C210.563 133.996 210.326 134.725 210.326 135.62C210.326 136.898 210.793 137.864 211.726 138.516C212.659 139.168 213.848 139.494 215.293 139.494ZM238.644 104.727V144H231.702V104.727H238.644Z" fill="white"/>
</g>
<defs>
<filter id="filter0_d_0_1" x="15.874" y="104.727" width="226.771" height="58.3181" filterUnits="userSpaceOnUse" color-interpolation-filters="sRGB">
<feFlood flood-opacity="0" result="BackgroundImageFix"/>
<feColorMatrix in="SourceAlpha" type="matrix" values="0 0 0 0 0 0 0 0 0 0 0 0 0 0 0 0 0 0 127 0" result="hardAlpha"/>
<feOffset dy="4"/>
<feGaussianBlur stdDeviation="2"/>
<feComposite in2="hardAlpha" operator="out"/>
<feColorMatrix type="matrix" values="0 0 0 0 0 0 0 0 0 0 0 0 0 0 0 0 0 0 0.25 0"/>
<feBlend mode="normal" in2="BackgroundImageFix" result="effect1_dropShadow_0_1"/>
<feBlend mode="normal" in="SourceGraphic" in2="effect1_dropShadow_0_1" result="shape"/>
</filter>
<linearGradient id="paint0_linear_0_1" x1="125" y1="0" x2="125" y2="250" gradientUnits="userSpaceOnUse">
<stop stop-color="#9020E7"/>
<stop offset="0.541237" stop-color="#9C24EE" stop-opacity="0.972938"/>
<stop offset="1" stop-color="#A627F4" stop-opacity="0.95"/>
</linearGradient>
</defs>
</svg>
